<svg width="35" height="29" viewBox="0 0 35 29" fill="none" xmlns="http://www.w3.org/2000/svg">
<g clip-path="url(#clip0_248_2303)">
<path d="M8.22991 14.5614C10.0982 14.5614 11.7255 12.8739 11.7255 10.6942C11.7255 8.52455 10.0881 6.9375 8.22991 6.9375C6.36161 6.9375 4.72433 8.56473 4.72433 10.7143C4.72433 12.8739 6.35157 14.5614 8.22991 14.5614ZM2.625 23.6317H13.8147C15.0904 23.6317 15.5826 23.1295 15.5826 22.2154C15.5826 19.4431 12.75 16.0982 8.21986 16.0982C3.68973 16.0982 0.857143 19.4431 0.857143 22.2154C0.857143 23.1295 1.35938 23.6317 2.625 23.6317Z" fill="#B3B3B3"/>
<path d="M13.4733 24.9978H26.0993C28.741 24.9978 29.6049 23.7221 29.6049 22.2957C29.6049 18.9207 25.7377 14.7623 19.7812 14.7623C13.8348 14.7623 9.96763 18.9207 9.96763 22.2957C9.96763 23.7221 10.8315 24.9978 13.4733 24.9978Z" fill="#0D0D0D"/>
<path d="M19.7913 14.3304C21.9509 14.3304 23.8091 12.4018 23.8091 9.89067C23.8091 7.40961 21.9409 5.57144 19.7913 5.57144C17.6417 5.57144 15.7734 7.44979 15.7734 9.91073C15.7734 12.4018 17.6317 14.3304 19.7913 14.3304ZM13.4733 23.6317H26.0993C27.6764 23.6317 28.2388 23.1797 28.2388 22.2958C28.2388 19.7043 24.9945 16.1284 19.7812 16.1284C14.5781 16.1284 11.3337 19.7043 11.3337 22.2958C11.3337 23.1797 11.8962 23.6317 13.4733 23.6317Z" fill="#B3B3B3"/>
<path d="M28.3393 28.7846C31.875 28.7846 34.8181 25.8516 34.8181 22.3159C34.8181 18.76 31.8951 15.8371 28.3393 15.8371C24.7935 15.8371 21.8705 18.76 21.8705 22.3159C21.8705 25.8817 24.7835 28.7846 28.3393 28.7846Z" fill="#0D0D0D"/>
<path d="M27.9074 27.509H28.7712C29.0826 27.509 29.3236 27.3281 29.394 27.0067L29.635 26.0223C29.7757 25.9821 29.9364 25.9119 30.077 25.8415L30.9409 26.3638C31.202 26.5346 31.4933 26.5346 31.7343 26.2935L32.327 25.6909C32.5379 25.4698 32.5581 25.1786 32.3873 24.8873L31.875 24.0234C31.9553 23.8828 31.9955 23.7522 32.0457 23.6116L33.0402 23.3805C33.3516 23.3002 33.5524 23.0591 33.5524 22.7478V21.894C33.5524 21.5926 33.3415 21.3717 33.0402 21.2913L32.0659 21.0502C31.9955 20.8795 31.9353 20.759 31.885 20.6384L32.4274 19.7445C32.5881 19.4833 32.5581 19.1619 32.3471 18.9609L31.7343 18.3683C31.5033 18.1373 31.202 18.0971 30.9509 18.2578L30.077 18.8103C29.9062 18.7198 29.7757 18.6797 29.635 18.6295L29.394 17.625C29.3236 17.3236 29.0826 17.1228 28.7712 17.1228H27.9074C27.596 17.1228 27.3448 17.3337 27.2745 17.625L27.0536 18.6195C26.8728 18.6797 26.7422 18.7198 26.5915 18.8103L25.7176 18.2578C25.4866 18.1071 25.1652 18.1373 24.9442 18.3683L24.3516 18.9609C24.1407 19.1719 24.0703 19.4833 24.241 19.7445L24.7935 20.6384C24.7433 20.759 24.6831 20.8995 24.6127 21.0502L23.6384 21.2913C23.3371 21.3717 23.1362 21.6027 23.1362 21.894V22.7478C23.1362 23.0591 23.3371 23.3002 23.6384 23.3805L24.6228 23.6116C24.6931 23.7522 24.7433 23.8828 24.8036 24.0234L24.2913 24.8973C24.1205 25.1786 24.1507 25.4799 24.3616 25.6909L24.9442 26.2935C25.1652 26.5346 25.4665 26.5346 25.7377 26.3638L26.6116 25.8415C26.7824 25.9319 26.9129 25.9821 27.0536 26.0223L27.2745 27.0067C27.3448 27.3081 27.596 27.509 27.9074 27.509ZM28.3393 23.9933C27.4052 23.9933 26.6719 23.25 26.6719 22.3259C26.6719 21.4119 27.4052 20.6484 28.3393 20.6384C29.2433 20.6283 30.0167 21.4119 30.0167 22.3259C30.0167 23.25 29.2433 23.9933 28.3393 23.9933Z" fill="#B3B3B3"/>
</g>
<defs>
<clipPath id="clip0_248_2303">
<rect width="33.9609" height="28.356" fill="white" transform="translate(0.857143 0.428558)"/>
</clipPath>
</defs>
</svg>
