<svg width="80" height="80" viewBox="0 0 80 80" fill="none" xmlns="http://www.w3.org/2000/svg">
<path d="M30.733 21.5697L39.224 23.3217L46.2862 21.7735L51.4298 21.7735L53.0627 22.0179L56.206 22.955L57.8797 23.4439L58.8594 23.8513L60.4923 24.7069L63.1458 27.2736L65.2277 29.7589L66.0033 31.1849L66.8197 33.0183L67.5954 34.648L67.8811 35.911L68.5751 40.3111L68.9017 44.752L69.1058 47.9299L71.5551 52.4116L71.6368 52.819L71.6776 53.8375L70.902 55.9154L70.208 56.771L69.2282 57.9117L68.7384 58.4821L67.9764 59.0525L66.2618 60.0303L65.9625 60.0303L65.4318 59.9489L64.9011 59.8266L64.5337 59.5822L64.2888 59.2155L64.2071 57.7895L64.3704 56.3635L64.9011 55.1413L63.309 53.4301L62.0844 52.0856L61.5945 51.393L60.4515 50.7819L53.0627 47.604L52.083 47.5632L51.2665 47.7262L48.3273 48.4596L45.4698 48.704L42.4489 48.2559L42.0815 48.4188L42.6122 57.1784L42.449 58.2784L41.7142 59.6637L40.8161 60.6415L40.0813 61.0896L39.3056 61.3748L37.2237 61.5378L35.3459 61.4971L34.6519 61.2526L34.0396 60.8452L33.8355 60.3563L33.7538 59.8674L33.9171 59.2562L34.1212 58.7266L35.1826 57.8303L36.1215 57.0969L32.7741 49.967L31.4678 48.9077L22.3236 45.1595L20.9765 44.1816L20.1601 42.9594L16.9351 43.0001L15.6696 43.0001L14.5674 42.8371L13.5061 42.3075L13.0979 42.2668L8.28085 42.6334L7.097 42.3162L5.58658 41.126L5.13754 40.7186L4.52521 39.9445L3.79041 38.8037L3.74959 38.5592L3.79041 38.1925L3.91288 37.9073L4.52521 37.3777L6.64796 35.8702L7.097 32.4072L7.79098 31.5516L10.322 29.3108L10.4444 26.2551L10.5669 25.6847L10.8118 25.1958L11.3833 24.7476L11.914 24.6254L12.5263 24.7476L13.4653 25.6847L13.7102 25.6847L13.9959 25.5625L14.4042 24.055L14.4858 23.7698L14.8124 23.5254L15.4311 23.3894L16.1595 23.6068L18.8129 25.318L20.0376 25.2773L26.61 21.9364L29.345 21.4883L30.733 21.5697Z" fill="#FFA600"/>
<path d="M21.3035 45.6074L30.7742 49.5594L24.6917 57.8301L21.7117 60.1116L19.7931 60.4783L15.5476 60.8042L14.2005 60.7228L13.2616 60.4783L12.8533 60.1116L12.6084 59.256L12.8533 58.3597L14.2005 57.3412L17.1805 56.1189L19.6706 52.2891L21.3035 45.6074Z" fill="#FFA600"/>
<path d="M52.4913 48.2556L60.6965 51.7594L59.2677 53.1854L56.1244 58.2782L55.6754 58.8893L55.1447 59.3375L53.7159 60.3153L52.8995 60.6005L48.6132 60.7635L47.5518 60.4783L47.1436 60.2338L46.6129 59.8671L46.5312 59.5412V59.0115L46.817 58.0745L47.8784 57.0559L50.9809 55.6707L52.6137 52.0854L52.4913 48.2556Z" fill="#FFA600"/>
</svg>
