<svg width="16" height="16" viewBox="0 0 16 16" fill="none" xmlns="http://www.w3.org/2000/svg">
<g clip-path="url(#clip0_248_2269)">
<path fill-rule="evenodd" clip-rule="evenodd" d="M0 1C0 0.447715 0.447715 0 1 0H6C6.55228 0 7 0.447715 7 1V6C7 6.55228 6.55228 7 6 7H1C0.447715 7 0 6.55228 0 6V1ZM6 1H1V6H6V1ZM5 2H2V5H5V2ZM0 10C0 9.44771 0.447715 9 1 9H6C6.55228 9 7 9.44772 7 10V15C7 15.5523 6.55228 16 6 16H1C0.447715 16 0 15.5523 0 15V10ZM6 10H1V15H6V10ZM5 11H2V14H5V11ZM10 0C9.44772 0 9 0.447715 9 1V6C9 6.55228 9.44771 7 10 7H15C15.5523 7 16 6.55228 16 6V1C16 0.447715 15.5523 0 15 0H10ZM10 1H15V6H10V1ZM11 2H14V5H11V2ZM14 12H13V11H12V12H11V13H12V14H13V13H14V12ZM9 9H11V11H9V9ZM14 9H16V11H14V9ZM16 14H14V16H16V14ZM9 14H11V16H9V14Z" fill="white"/>
</g>
<defs>
<clipPath id="clip0_248_2269">
<rect width="16" height="16" fill="white"/>
</clipPath>
</defs>
</svg>
