<svg width="24" height="23" viewBox="0 0 24 23" fill="none" xmlns="http://www.w3.org/2000/svg">
<g clip-path="url(#clip0_442_4152)">
<path d="M11.9562 21.3997C12.1974 21.3997 12.4384 21.3896 12.6795 21.3695L13.242 22.4242C13.3625 22.6652 13.6036 22.7858 13.8848 22.7356C14.156 22.6854 14.3469 22.4845 14.377 22.2032L14.5578 21.038C15.0198 20.9175 15.4719 20.7468 15.9138 20.5559L16.7777 21.3193C16.9786 21.5001 17.2598 21.5604 17.521 21.4097C17.752 21.2791 17.8625 21.018 17.7922 20.7367L17.5612 19.6016C17.9429 19.3204 18.3246 19.009 18.666 18.6775L19.7308 19.1195C20.0121 19.23 20.2732 19.1597 20.4741 18.9287C20.6348 18.7278 20.665 18.4465 20.5143 18.2054L19.9016 17.2111C20.1627 16.8193 20.4038 16.3974 20.6248 15.9554L21.79 15.9956C22.0512 16.0157 22.3122 15.8751 22.3926 15.5938C22.4831 15.3327 22.3927 15.0715 22.1817 14.9008L21.2777 14.1775C21.3982 13.7155 21.4786 13.2333 21.5188 12.7311L22.6136 12.3795C22.8948 12.2892 23.0757 12.0782 23.0757 11.797C23.0757 11.5057 22.8948 11.3047 22.6136 11.2144L21.5188 10.8628C21.4786 10.3606 21.3982 9.88849 21.2777 9.41638L22.1817 8.68313C22.3826 8.52242 22.4831 8.2713 22.3926 8.01014C22.3122 7.72888 22.0512 7.58826 21.79 7.60835L20.6248 7.63849C20.4038 7.19652 20.1627 6.78469 19.9016 6.37286L20.5143 5.37844C20.655 5.15745 20.6348 4.87621 20.4741 4.67531C20.2732 4.43424 20.0121 4.37397 19.7408 4.48447L18.666 4.90635C18.3246 4.59495 17.9429 4.27353 17.5612 3.99228L17.7922 2.86728C17.8524 2.56594 17.752 2.31483 17.521 2.19429C17.2598 2.04362 16.9786 2.0838 16.7777 2.27464L15.9138 3.02799C15.4719 2.84719 15.0198 2.68647 14.5578 2.5559L14.377 1.40076C14.3469 1.11951 14.156 0.918618 13.8848 0.868395C13.6036 0.818172 13.3524 0.938707 13.242 1.16973L12.6795 2.22442C12.4384 2.20433 12.1974 2.19429 11.9562 2.19429C11.7051 2.19429 11.4741 2.20433 11.223 2.22442L10.6705 1.16973C10.55 0.938707 10.3089 0.818172 10.0277 0.868395C9.75648 0.918618 9.58573 1.11951 9.53551 1.40076L9.3547 2.54585C8.89265 2.68647 8.44064 2.84719 7.98863 3.02799L7.13484 2.28469C6.92389 2.0838 6.65269 2.04362 6.38149 2.19429C6.16051 2.31483 6.06006 2.56594 6.12032 2.86728L6.34131 3.99228C5.96965 4.27353 5.57791 4.59495 5.2364 4.90635L4.17167 4.48447C3.90046 4.37397 3.6393 4.43424 3.43841 4.67531C3.27769 4.87621 3.24756 5.15745 3.38818 5.37844L4.01095 6.37286C3.74979 6.78469 3.51877 7.19652 3.28774 7.63849L2.12256 7.60835C1.85136 7.58826 1.60024 7.72888 1.51988 8.01014C1.42948 8.2713 1.50984 8.52242 1.73082 8.68313L2.63484 9.41638C2.5143 9.88849 2.43394 10.3606 2.40381 10.8628L1.28885 11.2144C1.0076 11.2947 0.856934 11.5057 0.856934 11.797C0.856934 12.0883 1.0076 12.2892 1.28885 12.3795L2.40381 12.7311C2.43394 13.2333 2.5143 13.7155 2.63484 14.1775L1.73082 14.9008C1.50984 15.0715 1.42948 15.3327 1.51988 15.5938C1.60024 15.8751 1.85136 16.0157 2.12256 15.9956L3.28774 15.9554C3.51877 16.3974 3.74979 16.8193 4.01095 17.2111L3.39823 18.2054C3.2576 18.4465 3.26765 18.7278 3.43841 18.9287C3.6393 19.1597 3.90046 19.23 4.18171 19.1195L5.2364 18.6775C5.57791 19.009 5.96965 19.3204 6.34131 19.6016L6.12032 20.7367C6.0701 21.018 6.16051 21.2791 6.38149 21.4097C6.65269 21.5604 6.92389 21.5001 7.13484 21.3193L7.98863 20.5559C8.44064 20.7468 8.89265 20.9175 9.3547 21.0481L9.53551 22.2032C9.58573 22.4845 9.75648 22.6854 10.0277 22.7356C10.3089 22.7858 10.55 22.6652 10.6705 22.4242L11.223 21.3695C11.4641 21.3896 11.7051 21.3997 11.9562 21.3997ZM11.9562 19.7825C7.49644 19.7825 4.08127 16.2468 4.08127 11.807C4.08127 7.35723 7.49644 3.81147 11.9562 3.81147C16.416 3.81147 19.8514 7.35723 19.8514 11.807C19.8514 16.2468 16.416 19.7825 11.9562 19.7825ZM10.2085 10.2601L11.3938 9.5068L8.03886 3.75121L6.80336 4.44429L10.2085 10.2601ZM14.1962 12.48H20.8759V11.0938H14.1962V12.48ZM11.4138 14.1173L10.2386 13.3539L6.70291 19.1195L7.92836 19.8427L11.4138 14.1173ZM11.9362 14.4387C13.3926 14.4387 14.5679 13.2735 14.5679 11.8171C14.5679 10.3606 13.3926 9.18536 11.9362 9.18536C10.4797 9.18536 9.31453 10.3606 9.31453 11.8171C9.31453 13.2735 10.4797 14.4387 11.9362 14.4387ZM11.9362 12.932C11.3034 12.932 10.8112 12.4599 10.8112 11.8171C10.8112 11.1742 11.3034 10.682 11.9362 10.682C12.579 10.682 13.0712 11.1742 13.0712 11.8171C13.0712 12.4599 12.579 12.932 11.9362 12.932Z" fill="#B3B3B3"/>
</g>
<defs>
<clipPath id="clip0_442_4152">
<rect width="22.2188" height="21.8897" fill="white" transform="translate(0.856934 0.857117)"/>
</clipPath>
</defs>
</svg>
