<svg width="127" height="56" viewBox="0 0 127 56" fill="none" xmlns="http://www.w3.org/2000/svg">
<path d="M29.2198 22.4709L31.7671 22.9965L33.8858 22.532L35.4288 22.532L35.9187 22.6054L36.8617 22.8865L37.3638 23.0332L37.6577 23.1554L38.1476 23.4121L38.9436 24.1821L39.5682 24.9277L39.8009 25.3555L40.0458 25.9055L40.2785 26.3944L40.3642 26.7733L40.5724 28.0933L40.6704 29.4256L40.7316 30.379L41.4664 31.7235L41.4909 31.8457L41.5032 32.1513L41.2705 32.7746L41.0623 33.0313L40.7684 33.3735L40.6214 33.5446L40.3928 33.7158L39.8785 34.0091L39.7886 34.0091L39.6294 33.9847L39.4702 33.948L39.36 33.8747L39.2865 33.7646L39.262 33.3369L39.311 32.9091L39.4702 32.5424L38.9926 32.029L38.6252 31.6257L38.4783 31.4179L38.1354 31.2346L35.9187 30.2812L35.6248 30.269L35.3799 30.3179L34.4981 30.5379L33.6408 30.6112L32.7346 30.4768L32.6244 30.5256L32.7836 33.1535L32.7346 33.4835L32.5141 33.8991L32.2447 34.1924L32.0243 34.3269L31.7916 34.4124L31.167 34.4613L30.6037 34.4491L30.3955 34.3758L30.2118 34.2536L30.1505 34.1069L30.1261 33.9602L30.175 33.7769L30.2363 33.618L30.5547 33.3491L30.8364 33.1291L29.8321 30.9901L29.4402 30.6723L26.697 29.5478L26.2929 29.2545L26.0479 28.8878L25.0804 28.9L24.7008 28.9L24.3701 28.8511L24.0517 28.6923L23.9293 28.68L22.4842 28.79L22.129 28.6949L21.6759 28.3378L21.5412 28.2156L21.3575 27.9833L21.137 27.6411L21.1248 27.5678L21.137 27.4578L21.1738 27.3722L21.3575 27.2133L21.9943 26.7611L22.129 25.7221L22.3372 25.4655L23.0965 24.7932L23.1332 23.8765L23.17 23.7054L23.2434 23.5587L23.4149 23.4243L23.5741 23.3876L23.7578 23.4243L24.0395 23.7054L24.113 23.7054L24.1987 23.6687L24.3212 23.2165L24.3456 23.1309L24.4436 23.0576L24.6292 23.0168L24.8478 23.0821L25.6438 23.5954L26.0112 23.5832L27.9829 22.5809L28.8034 22.4465L29.2198 22.4709Z" fill="white"/>
<path d="M26.3908 29.6823L29.232 30.8678L27.4072 33.349L26.5132 34.0335L25.9376 34.1435L24.664 34.2413L24.2598 34.2169L23.9782 34.1435L23.8557 34.0335L23.7822 33.7768L23.8557 33.5079L24.2598 33.2024L25.1538 32.8357L25.9009 31.6868L26.3908 29.6823Z" fill="white"/>
<path d="M35.7475 30.4767L38.2091 31.5278L37.7804 31.9556L36.8374 33.4835L36.7027 33.6668L36.5435 33.8012L36.1149 34.0946L35.8699 34.1801L34.5841 34.229L34.2656 34.1435L34.1432 34.0701L33.984 33.9601L33.9595 33.8624V33.7035L34.0452 33.4223L34.3636 33.1168L35.2944 32.7012L35.7842 31.6256L35.7475 30.4767Z" fill="white"/>
<path d="M55.9114 21.064C59.3194 21.064 61.7834 22.984 62.5354 25.432H59.3354C58.7914 24.472 57.5594 23.736 55.9754 23.736C53.6074 23.736 51.8474 25.48 51.8474 27.912C51.8474 30.36 53.6074 32.136 55.9754 32.136C58.0074 32.136 59.4154 30.888 59.7194 29.608H55.7354V27.144H62.8234V27.912C62.8234 31.864 59.8634 34.76 55.9114 34.76C51.8954 34.76 48.9354 31.864 48.9354 27.912C48.9354 23.96 51.8954 21.064 55.9114 21.064ZM71.0223 34.76C66.9743 34.76 63.9823 31.864 63.9823 27.912C63.9823 23.96 66.9743 21.064 71.0223 21.064C75.0703 21.064 78.0623 23.96 78.0623 27.912C78.0623 31.864 75.0703 34.76 71.0223 34.76ZM71.0223 32.136C73.3903 32.136 75.1503 30.36 75.1503 27.912C75.1503 25.448 73.3903 23.688 71.0223 23.688C68.6543 23.688 66.8943 25.448 66.8943 27.912C66.8943 30.36 68.6543 32.136 71.0223 32.136ZM79.7926 34.44V21.4H82.1126L86.6086 28.696L91.1046 21.4H93.4246V34.44H90.5126V27.288L87.4886 32.296H85.7286L82.7046 27.288V34.44H79.7926ZM100.802 21.08C103.714 21.08 105.89 22.856 106.034 25.336H103.026C102.85 24.2 102.002 23.512 100.61 23.512C99.2501 23.512 98.4981 24.056 98.4981 24.84C98.4981 25.816 99.5061 26.152 102.05 26.68C105.058 27.304 106.082 28.792 106.082 30.744C106.082 33.24 103.73 34.76 100.818 34.76C97.6021 34.76 95.2501 33.016 95.1221 30.232H98.1141C98.2741 31.48 99.3621 32.312 101.026 32.312C102.21 32.312 103.09 31.72 103.09 30.872C103.09 29.832 102.21 29.416 99.8901 28.984C97.0581 28.456 95.5221 27.288 95.5221 24.84C95.5221 22.488 97.8581 21.08 100.802 21.08Z" fill="white"/>
</svg>
