<svg width="24" height="25" viewBox="0 0 24 25" fill="none" xmlns="http://www.w3.org/2000/svg">
<g clip-path="url(#clip0_291_4548)">
<path d="M9.23104 19.3159C8.8393 19.3159 8.58818 19.0848 8.56809 18.7031L8.26675 7.64397C8.25671 7.27233 8.50782 7.03125 8.90961 7.03125C9.28126 7.03125 9.54242 7.26228 9.55247 7.63393L9.8739 18.7031C9.88394 19.0748 9.62278 19.3159 9.23104 19.3159ZM12.2947 19.3159C11.9029 19.3159 11.6317 19.0748 11.6317 18.7031V7.64397C11.6317 7.27233 11.9029 7.03125 12.2947 7.03125C12.6864 7.03125 12.9676 7.27233 12.9676 7.64397V18.7031C12.9676 19.0748 12.6864 19.3159 12.2947 19.3159ZM15.3683 19.3159C14.9766 19.3159 14.7154 19.0748 14.7255 18.7031L15.0369 7.64397C15.0469 7.26228 15.3081 7.03125 15.6797 7.03125C16.0815 7.03125 16.3326 7.27233 16.3226 7.64397L16.0212 18.7031C16.0012 19.0848 15.75 19.3159 15.3683 19.3159ZM7.88506 4.5904H9.48216V2.44085C9.48216 1.86831 9.88394 1.49665 10.4866 1.49665H14.0826C14.6853 1.49665 15.0871 1.86831 15.0871 2.44085V4.5904H16.6841V2.3404C16.6841 0.883929 15.74 0 14.1931 0H10.3761C8.82925 0 7.88506 0.883929 7.88506 2.3404V4.5904ZM3.32479 5.39397H21.2746C21.6864 5.39397 22.0179 5.04241 22.0179 4.63058C22.0179 4.21875 21.6864 3.87723 21.2746 3.87723H3.32479C2.923 3.87723 2.57144 4.21875 2.57144 4.63058C2.57144 5.05245 2.923 5.39397 3.32479 5.39397ZM7.69421 22.3695H16.9052C18.3415 22.3695 19.3058 21.4353 19.3762 19.9989L20.0793 5.18304H4.51006L5.22323 20.009C5.29354 21.4453 6.23773 22.3695 7.69421 22.3695Z" fill="#E43620"/>
</g>
<defs>
<clipPath id="clip0_291_4548">
<rect width="19.4464" height="24.1574" fill="white" transform="translate(2.57144)"/>
</clipPath>
</defs>
</svg>
