<svg width="30" height="30" viewBox="0 0 30 30" fill="none" xmlns="http://www.w3.org/2000/svg">
<g filter="url(#filter0_d_1234_10341)">
<path d="M16.9604 27.2154C22.5653 27.2154 27.2059 22.5747 27.2059 16.9698C27.2059 11.375 22.5553 6.7243 16.9503 6.7243C11.3555 6.7243 6.71484 11.375 6.71484 16.9698C6.71484 22.5747 11.3655 27.2154 16.9604 27.2154Z" fill="#FFA600"/>
<path d="M13.6462 21.4598L12.2098 22.0022C11.9888 22.0826 11.7377 21.8616 11.8482 21.6004L12.4308 20.2343L19.2009 13.4643L20.4364 14.6998L13.6462 21.4598ZM21.0592 14.077L19.8237 12.8515L20.5871 12.0881C20.9285 11.7667 21.3102 11.7265 21.6216 12.0379L21.8527 12.279C22.1741 12.5904 22.154 12.9821 21.8125 13.3236L21.0592 14.077Z" fill="white"/>
</g>
<defs>
<filter id="filter0_d_1234_10341" x="-1" y="-1" width="32" height="32" filterUnits="userSpaceOnUse" color-interpolation-filters="sRGB">
<feFlood flood-opacity="0" result="BackgroundImageFix"/>
<feColorMatrix in="SourceAlpha" type="matrix" values="0 0 0 0 0 0 0 0 0 0 0 0 0 0 0 0 0 0 127 0" result="hardAlpha"/>
<feOffset dx="-2" dy="-2"/>
<feGaussianBlur stdDeviation="2"/>
<feComposite in2="hardAlpha" operator="out"/>
<feColorMatrix type="matrix" values="0 0 0 0 0 0 0 0 0 0 0 0 0 0 0 0 0 0 0.25 0"/>
<feBlend mode="normal" in2="BackgroundImageFix" result="effect1_dropShadow_1234_10341"/>
<feBlend mode="normal" in="SourceGraphic" in2="effect1_dropShadow_1234_10341" result="shape"/>
</filter>
</defs>
</svg>
